<?xml version="1.0" encoding="UTF-8" standalone="no"?>
<!-- Created with Inkscape (http://www.inkscape.org/) -->

<svg
   xmlns:dc="http://purl.org/dc/elements/1.1/"
   xmlns:cc="http://creativecommons.org/ns#"
   xmlns:rdf="http://www.w3.org/1999/02/22-rdf-syntax-ns#"
   xmlns:svg="http://www.w3.org/2000/svg"
   xmlns="http://www.w3.org/2000/svg"
   xmlns:sodipodi="http://sodipodi.sourceforge.net/DTD/sodipodi-0.dtd"
   xmlns:inkscape="http://www.inkscape.org/namespaces/inkscape"
   width="2147"
   height="200"
   id="svg2"
   version="1.1"
   inkscape:version="0.48.4 r9939"
   sodipodi:docname="bg.svg">
  <defs
     id="defs4" />
  <sodipodi:namedview
     id="base"
     pagecolor="#ffffff"
     bordercolor="#666666"
     borderopacity="1.0"
     inkscape:pageopacity="0.0"
     inkscape:pageshadow="2"
     inkscape:zoom="3.959798"
     inkscape:cx="2135.8956"
     inkscape:cy="52.057128"
     inkscape:document-units="px"
     inkscape:current-layer="layer1"
     showgrid="false"
     inkscape:snap-bbox="true"
     inkscape:bbox-nodes="false"
     inkscape:snap-bbox-edge-midpoints="false"
     inkscape:bbox-paths="false"
     inkscape:window-width="1366"
     inkscape:window-height="744"
     inkscape:window-x="0"
     inkscape:window-y="24"
     inkscape:window-maximized="1" />
  <metadata
     id="metadata7">
    <rdf:RDF>
      <cc:Work
         rdf:about="">
        <dc:format>image/svg+xml</dc:format>
        <dc:type
           rdf:resource="http://purl.org/dc/dcmitype/StillImage" />
        <dc:title />
      </cc:Work>
    </rdf:RDF>
  </metadata>
  <g
     inkscape:label="Layer 1"
     inkscape:groupmode="layer"
     id="layer1"
     transform="translate(0,-852.36218)">
    <rect
       style="fill:#333333;fill-opacity:1;fill-rule:nonzero;stroke:none"
       id="rect2985"
       width="2148.5942"
       height="201.02045"
       x="-0.50507545"
       y="852.35199" />
    <path
       style="fill:#2b6aa6;fill-opacity:1;fill-rule:nonzero;stroke:none"
       d="m 170.40625,892.73718 c -28.13939,0 -53.86263,8.3793 -73.53125,22.1875 -6.289105,-1.88962 -12.886714,-2.90625 -19.6875,-2.90625 -31.38187,0 -58.425831,21.43843 -70.8125,52.3125 -2.3275126,0.46847 -4.6281129,1.05282 -6.875,1.71875 l 0,87.31242 2148.5938,0 0,-87.75626 c -11.9509,0.23344 -17.9149,3.37518 -27.9467,7.36739 -5.0131,-14.52142 -32.1375,-37.31029 -60.724,-37.56283 -26.0258,-0.22991 -44.5065,7.88332 -58.5169,27.32678 -7.9925,-2.7569 -16.5848,-4.28125 -25.5312,-4.28125 -5.8267,0 -11.4793,0.66999 -16.9375,1.875 -14.0715,-18.88813 -36.7571,-31.15625 -62.3437,-31.15625 -15.435,0 -29.8062,4.46984 -41.875,12.15625 -11.5729,-6.81075 -25.107,-10.71875 -39.5626,-10.71875 -32.4796,0 -60.2412,19.75814 -71.6874,47.75 -10.2662,-4.96996 -21.7922,-7.75 -34,-7.75 -2.7759,0 -5.5186,0.12487 -8.2188,0.40625 -14.1086,-18.47175 -36.5272,-30.40625 -61.7812,-30.40625 -23.1812,0 -43.9863,10.06178 -58.1563,26 -10.085,-4.75486 -21.3577,-7.4375 -33.2813,-7.4375 -12.789,0 -24.8431,3.07742 -35.4687,8.5 -14.1704,-17.37165 -35.8849,-28.5 -60.25,-28.5 -1.5991,0 -3.175,0.0619 -4.75,0.15625 -13.0509,-23.90351 -38.6385,-40.15625 -68.0937,-40.15625 -22.3858,0 -42.5693,9.37794 -56.6876,24.375 -4.9937,-0.99936 -10.1758,-1.53125 -15.4687,-1.53125 -25.6767,0 -48.4086,12.3735 -62.4687,31.375 -9.8889,-4.53077 -20.9096,-7.0625 -32.5313,-7.0625 -10.8184,0 -21.1199,2.16731 -30.4687,6.125 -11.7233,-7.06336 -25.5071,-11.125 -40.25,-11.125 -7.023,0 -13.8138,0.92546 -20.2813,2.65625 -12.9882,-24.10472 -38.675,-40.53125 -68.2813,-40.53125 -6.9989,0 -13.7709,0.93683 -20.2187,2.65625 -10.196,-8.42787 -22.5381,-13.375 -35.84375,-13.375 -17.12126,0 -32.65721,8.19627 -44.0625,21.46875 -7.89592,-2.78769 -16.39402,-4.3125 -25.25,-4.3125 -22.57524,0 -42.81653,9.87061 -56.65625,25.5 -7.85817,-4.43854 -16.61579,-6.9375 -25.84375,-6.9375 -11.50473,0 -22.25491,3.86103 -31.46875,10.5625 -13.68148,-7.57153 -29.94343,-12 -47.4375,-12 -7.3411,0 -14.4665,0.79235 -21.28125,2.25 -15.94052,-14.14193 -38.25272,-22.9375 -63,-22.9375 -9.11361,0 -17.92412,1.19318 -26.1875,3.40625 -12.77299,-9.37483 -28.0748,-14.84375 -44.53125,-14.84375 -17.30623,0 -33.31547,6.06373 -46.46875,16.34375 -6.38587,-1.80048 -13.04732,-2.78125 -19.9375,-2.78125 -13.78251,0 -26.76802,3.84232 -38.125,10.59375 -4.94951,-1.78003 -10.13134,-2.71875 -15.46875,-2.71875 -18.43874,0 -35.00611,11.26184 -46.53125,29.25 -10.21157,-1.86125 -20.95263,-2.84375 -32.03125,-2.84375 -19.73376,0 -38.37713,3.15203 -54.90625,8.75 -12.05039,-9.54587 -26.73801,-15.15625 -42.59375,-15.15625 -4.17286,0 -8.26523,0.37889 -12.25,1.125 -11.9423,-9.27331 -26.4249,-14.71875 -42.03125,-14.71875 -2.13137,0 -4.22676,0.11398 -6.3125,0.3125 -20.50679,-18.5788 -50.39712,-30.3125 -83.6875,-30.3125 z"
       id="path3755"
       inkscape:connector-curvature="0"
       sodipodi:nodetypes="scsccccccscscscscscscscscscscscscscscscscscscscscscscscscs" />
    <path
       style="fill:#ffffff;fill-opacity:1;fill-rule:nonzero;stroke:none"
       d="m 1136.375,72.5 c -21.2745,0 -39.6438,12.13883 -48.125,29.65625 -6.6693,-2.942081 -14.0702,-4.59375 -21.875,-4.59375 -22.1504,0 -41.1533,13.15513 -49.125,31.84375 C 1010.105,125.93821 1002.0336,124 993.5,124 c -7.07348,0 -13.7966,1.34729 -19.96875,3.78125 -7.84204,-18.95843 -26.96153,-32.34375 -49.3125,-32.34375 -8.15563,0 -15.87578,1.78348 -22.78125,4.96875 C 892.05449,85.83264 875.39594,76.125 856.375,76.125 c -18.69104,0 -35.12602,9.3781 -44.59375,23.53125 -6.47826,-2.72846 -13.61202,-4.21875 -21.125,-4.21875 -17.96673,0 -33.85555,8.63381 -43.46875,21.875 -2.37413,-0.29807 -4.78958,-0.46875 -7.25,-0.46875 -20.55981,0 -38.45308,10.75883 -47.75,26.625 -3.28031,-0.58139 -6.63471,-0.90625 -10.09375,-0.90625 -6.81567,0 -13.35999,1.18733 -19.375,3.34375 -9.74268,-14.04611 -26.51794,-23.34375 -45.625,-23.34375 -20.31395,0 -38.01798,10.50791 -47.40625,26.0625 -6.8917,-2.97046 -14.52361,-4.625 -22.59375,-4.625 -12.87785,0 -24.73125,4.2016 -34.0625,11.25 -7.01271,-3.0993 -14.83969,-4.8125 -23.09375,-4.8125 -24.63441,0 -45.44659,15.41435 -52.21875,36.59375 -5.77766,-1.9674 -12.00435,-3.03125 -18.5,-3.03125 -6.7564,0 -13.21604,1.16045 -19.1875,3.28125 C 391.03378,170.51295 372.641,159 351.375,159 c -5.53293,0 -10.87408,0.77225 -15.90625,2.21875 -6.46436,-10.9628 -17.02779,-19.47795 -29.75,-23.65625 -9.43937,-15.37036 -27.05067,-25.71875 -47.21875,-25.71875 -13.25398,0 -25.3918,4.48279 -34.84375,11.90625 -3.7344,-0.76294 -7.58634,-1.1875 -11.5625,-1.1875 -7.37637,0 -14.42608,1.40016 -20.84375,3.90625 -7.28734,-3.4091 -15.47293,-5.34375 -24.15625,-5.34375 -25.98381,0 -47.73137,17.18207 -53.21875,40.15625 -11.05981,0.7439 -21.20968,4.60745 -29.46875,10.65625 -6.24318,-2.3499 -13.05704,-3.65625 -20.1875,-3.65625 -8.837398,0 -17.179297,2.00785 -24.5625,5.53125 -9.949265,-9.9916 -24.049918,-16.25 -39.71875,-16.25 l -0.4375,0 0,65.65625 2148.5938,0 0,-66.04695 c -3.8347,-0.37442 -7.4798,-0.39404 -14.4181,0.67306 -3.4864,-6.18851 -10.8377,-19.80425 -33.2957,-20.8144 -15.8111,-0.71118 -21.1796,3.69438 -30.9112,14.34454 C 2064.4315,149.8384 2059.06,149 2053.5,149 c -15.7071,0 -29.8062,6.6147 -39.5312,17.125 -9.115,-7.1327 -20.6891,-11.40625 -33.3126,-11.40625 -7.4792,0 -14.607,1.4819 -21.0624,4.1875 -8.7193,-16.88943 -26.6996,-28.46875 -47.5,-28.46875 -0.9922,0 -1.9904,0.0418 -2.9688,0.0937 -8.3107,-13.4772 -22.7903,-22.95329 -39.6562,-24.78125 -8.4872,-17.5037 -26.8296,-29.625 -48.0938,-29.625 -17.6069,0 -33.2099,8.33079 -42.875,21.125 -5.7831,-2.09428 -12.0264,-3.25 -18.5625,-3.25 -21.4988,0 -39.9843,12.4027 -48.3437,30.21875 -5.0373,-1.53657 -10.3776,-2.375 -15.9376,-2.375 -19.9538,0 -37.327,10.69057 -46.4062,26.46875 -6.9286,-3.21169 -14.6835,-5.03125 -22.875,-5.03125 -7.9705,0 -15.5276,1.73073 -22.3125,4.78125 -9.1171,-15.64556 -26.4292,-26.21875 -46.2813,-26.21875 -8.1169,0 -15.8068,1.78026 -22.6874,4.9375 -9.4508,-8.39362 -22.0511,-13.5 -35.875,-13.5 -9.0677,0 -17.5947,2.20917 -25.0626,6.09375 -6.7282,-2.98935 -14.1773,-4.65625 -22.0624,-4.65625 -16.7863,0 -31.7659,7.55304 -41.5,19.34375 -2.9972,-0.50901 -6.0718,-0.78125 -9.2188,-0.78125 -17.6141,0 -33.2108,8.32188 -42.875,21.125 -8.5333,-5.6693 -18.8753,-8.96875 -30,-8.96875 -11.4488,0 -22.0451,3.49405 -30.7188,9.46875 -9.5143,-13.8919 -25.7964,-23.0625 -44.2812,-23.0625 -0.7167,0 -1.4152,0.0352 -2.125,0.0625 -9.0733,-15.79857 -26.468,-26.46875 -46.4375,-26.46875 -6.3001,0 -12.3377,1.07932 -17.9375,3.03125 C 1180.2018,87.615105 1160.1251,72.5 1136.375,72.5 z"
       transform="translate(0,852.36218)"
       id="path3818"
       inkscape:connector-curvature="0"
       sodipodi:nodetypes="scscscscscscscscscscscscsccscscsccscscccccscscscsccscscscscscscscscscscscs" />
  </g>
</svg>
