<?xml version="1.0" encoding="UTF-8" standalone="no"?>
<!-- Created with Inkscape (http://www.inkscape.org/) -->

<svg
   xmlns:dc="http://purl.org/dc/elements/1.1/"
   xmlns:cc="http://creativecommons.org/ns#"
   xmlns:rdf="http://www.w3.org/1999/02/22-rdf-syntax-ns#"
   xmlns:svg="http://www.w3.org/2000/svg"
   xmlns="http://www.w3.org/2000/svg"
   xmlns:sodipodi="http://sodipodi.sourceforge.net/DTD/sodipodi-0.dtd"
   xmlns:inkscape="http://www.inkscape.org/namespaces/inkscape"
   version="1.1"
   width="1244.6899"
   height="468.70404"
   id="svg2"
   inkscape:version="0.48.4 r9939"
   sodipodi:docname="logo.svg">
  <sodipodi:namedview
     pagecolor="#ffffff"
     bordercolor="#666666"
     borderopacity="1"
     objecttolerance="10"
     gridtolerance="10"
     guidetolerance="10"
     inkscape:pageopacity="0"
     inkscape:pageshadow="2"
     inkscape:window-width="1366"
     inkscape:window-height="744"
     id="namedview10"
     showgrid="false"
     fit-margin-top="50"
     fit-margin-bottom="50"
     fit-margin-left="200"
     fit-margin-right="200"
     inkscape:zoom="0.345689"
     inkscape:cx="113.21679"
     inkscape:cy="234.35198"
     inkscape:window-x="0"
     inkscape:window-y="24"
     inkscape:window-maximized="1"
     inkscape:current-layer="svg2" />
  <metadata
     id="metadata14">
    <rdf:RDF>
      <cc:Work
         rdf:about="">
        <dc:format>image/svg+xml</dc:format>
        <dc:type
           rdf:resource="http://purl.org/dc/dcmitype/StillImage" />
        <dc:title></dc:title>
      </cc:Work>
    </rdf:RDF>
  </metadata>
  <defs
     id="defs12" />
  <g
     transform="translate(153.34819,3.352619)"
     id="g4"
     style="fill:#2b6aa6;fill-opacity:1;stroke:none">
    <title
       id="title6">Layer 1</title>
    <path
       d="m 276.12106,322.97433 -91.39264,0 c -12.69806,0 -23.48835,-4.45251 -32.37733,-13.33828 -8.89862,-8.91791 -13.32541,-19.72751 -13.32541,-32.45133 l 0,-45.79281 137.09538,0 c 12.67877,0 23.57202,-4.53618 32.63794,-13.5828 9.06268,-9.05626 13.59564,-19.93342 13.59564,-32.60254 0,-12.67875 -4.52972,-23.54306 -13.63104,-32.59289 -9.09808,-9.0659 -20.01385,-13.59886 -32.74731,-13.59886 l -136.95063,0 0,-46.178897 c 0,-12.685204 -4.51043,-23.54306 -13.52486,-32.592892 -8.98227,-9.062691 -19.80475,-13.59565 -32.396651,-13.59565 -12.971527,0 -23.961288,4.45253 -32.956417,13.325409 C 51.149369,68.864983 46.65181,79.822571 46.65181,92.874527 l 0,184.352003 c 0,38.07169 13.495922,70.59381 40.513489,97.61139 27.014371,27.01434 59.542911,40.51349 97.608151,40.51349 l 91.3669,0 c 12.68521,0 23.55271,-4.52331 32.61862,-13.58279 9.06272,-9.0466 13.59568,-19.92057 13.59568,-32.60254 0,-12.67234 -4.52976,-23.53662 -13.59568,-32.5961 -9.06588,-9.05948 -19.95913,-13.59564 -32.63794,-13.59564 l 3e-5,0 z"
       id="path51"
       style="fill:#2b6aa6;fill-opacity:1;stroke:none"
       inkscape:connector-curvature="0" />
  </g>
  <path
     d="m 998.45626,326.32695 -91.39264,0 c -12.69806,0 -23.48834,-4.45251 -32.37732,-13.33828 -8.89862,-8.91791 -13.32541,-19.72751 -13.32541,-32.45133 l 0,-45.79281 137.09537,0 c 12.67874,0 23.57204,-4.53618 32.63794,-13.5828 9.0627,-9.05626 13.5956,-19.93342 13.5956,-32.60254 0,-12.67875 -4.5297,-23.54306 -13.631,-32.59289 -9.0981,-9.0659 -20.0139,-13.59886 -32.74731,-13.59886 l -136.95062,0 0,-46.17889 c 0,-12.68521 -4.51043,-23.54306 -13.52486,-32.59289 -8.98227,-9.06269 -19.80475,-13.59565 -32.39665,-13.59565 -12.97153,0 -23.96129,4.45253 -32.95642,13.3254 -8.99836,8.8922 -13.49592,19.84979 -13.49592,32.90174 l 0,184.352 c 0,38.07169 13.49592,70.59381 40.51349,97.61139 27.01437,27.01434 59.54291,40.51349 97.60814,40.51349 l 91.3669,0 c 12.68525,0 23.55275,-4.52331 32.61865,-13.58279 9.0627,-9.0466 13.5957,-19.92057 13.5957,-32.60254 0,-12.67234 -4.5298,-23.53662 -13.5957,-32.5961 -9.0659,-9.05948 -19.9592,-13.59564 -32.63797,-13.59564 l 3e-5,0 z"
     id="path51-5"
     style="fill:#2b6aa6;fill-opacity:1;stroke:none"
     inkscape:connector-curvature="0" />
  <path
     d="m 615.09658,142.36038 c -38.06523,0 -70.61063,13.51691 -97.625,40.53125 -26.64401,26.64403 -40.13195,58.63728 -40.5,96.03125 -0.005,0.007 0.005,0.0239 0,0.0312 -0.005,0.51383 0,1.01539 0,1.53125 l 0,0.0937 0,1.53125 c 0.35766,37.41329 13.84531,69.43904 40.5,96.09375 27.01437,27.01434 59.55977,40.5 97.625,40.5 l 24.84375,0 66.53125,0 c 2.32147,-0.008 4.58096,-0.15841 6.78125,-0.46875 9.05786,-1.24977 17.05898,-5.07313 24.0625,-11.46875 0.58283,-0.53121 1.15012,-1.08963 1.71875,-1.65625 0.005,-0.005 0.0259,0.005 0.0312,0 1.13284,-1.13083 2.19622,-2.28086 3.1875,-3.46875 0.49564,-0.59395 0.97725,-1.2043 1.4375,-1.8125 1.38074,-1.8246 2.59407,-3.70355 3.65625,-5.65625 0.3586,-0.65925 0.70896,-1.32617 1.03125,-2 0.63233,-1.32206 1.19496,-2.65312 1.6875,-4.03125 0.003,-0.009 -0.003,-0.022 0,-0.0312 0.24822,-0.69319 0.4748,-1.38638 0.6875,-2.09375 0.21536,-0.71737 0.41477,-1.42431 0.59375,-2.15625 0.17478,-0.71169 0.32849,-1.43077 0.46875,-2.15625 0.002,-0.01 -0.002,-0.0213 0,-0.0312 0.14172,-0.73572 0.26874,-1.46885 0.375,-2.21875 0.10766,-0.7603 0.20996,-1.50642 0.28125,-2.28125 0.0699,-0.75379 0.12086,-1.51366 0.15625,-2.28125 4.7e-4,-0.0102 -4.6e-4,-0.021 0,-0.0312 0.0354,-0.77825 0.0312,-1.55133 0.0312,-2.34375 0,-7.13806 -1.40568,-13.69619 -4.28125,-19.6875 -0.31469,-0.65696 -0.68204,-1.29432 -1.03125,-1.9375 -0.004,-0.008 0.004,-0.0233 0,-0.0312 -0.34973,-0.64315 -0.70949,-1.2769 -1.09375,-1.90625 -0.005,-0.007 0.005,-0.0238 0,-0.0312 -0.38946,-0.63697 -0.7939,-1.25219 -1.21875,-1.875 -0.85407,-1.25154 -1.78403,-2.4617 -2.78125,-3.65625 -0.49564,-0.59444 -1.00022,-1.16977 -1.53125,-1.75 -0.53118,-0.58032 -1.08963,-1.15253 -1.65625,-1.71875 -9.06588,-9.05948 -19.94619,-13.59375 -32.625,-13.59375 l -91.40625,0 c -12.69806,0 -23.48602,-4.45798 -32.375,-13.34375 -8.89862,-8.91791 -13.3125,-19.71368 -13.3125,-32.4375 0,-12.72382 4.41388,-23.55084 13.3125,-32.46875 8.88898,-8.88577 19.67694,-13.34375 32.375,-13.34375 l 91.40625,0 c 0.79243,0 1.56528,0.004 2.34375,-0.0312 9.34156,-0.42519 17.68773,-3.42177 25,-8.9375 1.21871,-0.91929 2.40073,-1.90841 3.5625,-2.96875 0.58089,-0.53017 1.15213,-1.05959 1.71875,-1.625 0.005,-0.005 -0.005,-0.0259 0,-0.0312 0.56128,-0.56088 1.12974,-1.11278 1.65625,-1.6875 0.005,-0.006 -0.005,-0.0254 0,-0.0312 0.53118,-0.58032 1.0355,-1.15558 1.53125,-1.75 0.5011,-0.60099 0.97258,-1.19701 1.4375,-1.8125 0.46032,-0.60852 0.91886,-1.22112 1.34375,-1.84375 2.12991,-3.12232 3.79103,-6.39745 5.03125,-9.875 0.2478,-0.69318 0.47511,-1.38645 0.6875,-2.09375 0.21536,-0.71723 0.41477,-1.42455 0.59375,-2.15625 0.17698,-0.72141 0.32717,-1.42072 0.46875,-2.15625 0.56657,-2.94283 0.84375,-6.02022 0.84375,-9.1875 0,-4.76508 -0.62438,-9.2475 -1.90625,-13.5 -0.21245,-0.7077 -0.43964,-1.40023 -0.6875,-2.09375 -0.49254,-1.37813 -1.05517,-2.74044 -1.6875,-4.0625 -0.004,-0.008 0.004,-0.023 0,-0.0312 -0.31469,-0.65683 -0.68204,-1.29453 -1.03125,-1.9375 -0.004,-0.008 0.004,-0.0234 0,-0.0312 -1.05826,-1.9455 -2.28178,-3.80666 -3.65625,-5.625 -0.005,-0.006 0.005,-0.0248 0,-0.0312 -0.45538,-0.60176 -0.94748,-1.19344 -1.4375,-1.78125 -0.005,-0.006 0.005,-0.0254 0,-0.0312 -0.99128,-1.18789 -2.05466,-2.33792 -3.1875,-3.46875 -0.005,-0.005 -0.0259,0.005 -0.0312,0 -7.96731,-7.95509 -17.30272,-12.41469 -28.0625,-13.375 -0.71582,-0.0661 -1.42807,-0.121 -2.15625,-0.15625 -0.0519,-0.002 -0.10432,0.002 -0.15625,0 -0.71997,-0.0326 -1.45548,-0.0599 -2.1875,-0.0625 l -40.9375,0 -50.4375,0 z"
     id="path51-5-5"
     style="fill:#2b6aa6;fill-opacity:1;stroke:none"
     inkscape:connector-curvature="0" />
</svg>
